<?xml version="1.0" encoding="UTF-8"?>
<svg width="101px" height="45px" viewBox="0 0 101 45" version="1.1" xmlns="http://www.w3.org/2000/svg" xmlns:xlink="http://www.w3.org/1999/xlink">
    <!-- Generator: sketchtool 42 (36781) - http://www.bohemiancoding.com/sketch -->
    <title>B094513B-38E8-4BBC-9E43-E9CBF9C6BDF8</title>
    <desc>Created with sketchtool.</desc>
    <defs></defs>
    <g id="Page-1" stroke="none" stroke-width="1" fill="none" fill-rule="evenodd">
        <g id="首页" transform="translate(-80.000000, -24.000000)" fill="#FFFFFF">
            <g id="D02_SECTION-1">
                <g id="Header" transform="translate(-902.000000, -299.000000)">
                    <g id="tagtalk-logo" transform="translate(982.000000, 323.000000)">
                        <g id="Asset-11">
                            <g id="Layer_2">
                                <g id="Layer_1-2">
                                    <path d="M67.7607116,22.1659794 L65.2791769,38.0412371 L67.0616225,38.0412371 L69.5616761,22.1659794 L74.858086,22.1659794 L75.1497589,20.3845361 L62.8994963,20.3845361 L62.6078234,22.1659794 L67.7607116,22.1659794 Z M74.7932697,27.371134 C75.0473166,27.1931592 75.3246206,27.0511022 75.6173615,26.9489691 C75.8349587,26.8840206 76.1220019,26.8097938 76.4831208,26.7402062 C76.9707184,26.655765 77.4652869,26.6184801 77.9600043,26.628866 C78.882626,26.6743611 79.7965242,26.8301031 80.6822849,27.0927835 L79.4276283,35.257732 C78.6443366,35.6056485 77.8403145,35.9046732 77.0201693,36.1530928 C76.2732299,36.3443656 75.5038663,36.4333194 74.7330833,36.4175258 C73.8349159,36.4175258 73.2376808,36.0881443 72.9321187,35.4293814 C72.7575005,34.9740731 72.6771654,34.4879223 72.6960026,34.0005155 C72.7221591,32.5427257 72.9560077,31.0961551 73.3904619,29.7046392 C73.5368668,29.1931646 73.7403147,28.699847 73.9969564,28.2340206 C74.1888801,27.8861176 74.4621233,27.5900307 74.7932697,27.371134 Z M72.0154324,28.1690722 C71.6072032,29.1350862 71.3195283,30.147898 71.1589326,31.1845361 C70.9847115,32.133791 70.8887068,33.0957973 70.8718894,34.0608247 C70.8292035,35.0644413 71.0699065,36.0597692 71.5663487,36.9324742 C72.1172865,37.7721649 73.200643,38.1850515 74.8071589,38.1850515 C76.1528668,38.1850515 77.6451827,37.6469072 79.2841067,36.5706186 L79.5480013,38.0180412 L80.8258065,38.0180412 L82.5110278,26.4618557 C81.7806899,25.8482958 80.8999751,25.4414755 79.9600472,25.2835052 C79.1520479,25.0864521 78.3274748,24.9653094 77.4970314,24.9216495 C76.9831315,24.9216495 76.5155289,24.9494845 76.1081127,24.9912371 C75.6564681,25.0487676 75.2143724,25.1657565 74.7932697,25.3391753 C74.2691539,25.5787393 73.7813267,25.891086 73.3441646,26.2670103 C72.7613362,26.7966146 72.3109367,27.4561116 72.0293216,28.192268 L72.0154324,28.1690722 Z M87.6546565,19.1273196 L85.8768406,19.1273196 L83.6082735,33.457732 C83.5358851,33.9274806 83.4987432,34.4020062 83.49716,34.8773196 C83.49716,36.9742268 84.4231058,38.0180412 86.3305541,38.0180412 L87.9648484,38.0180412 L88.1824456,36.6680412 C88.1824456,36.6680412 87.7518808,36.5845361 86.9740864,36.3943299 C86.450444,36.314587 85.9490763,36.1265854 85.5018326,35.842268 C85.3850862,35.7317392 85.3098816,35.5842995 85.2888651,35.4247423 C85.2479223,35.1873627 85.2308611,34.9464645 85.2379381,34.7056701 C85.2467729,34.2861118 85.2948234,33.868306 85.3814597,33.457732 L87.6546565,19.1273196 Z M90.7426857,38.0412371 L91.7751152,31.5974227 L92.701061,31.5974227 L97.1594899,38.0412371 L99.3215733,38.0412371 L94.4835066,31.0824742 C95.7078983,30.4823061 96.8223558,29.6792633 97.7798735,28.7072165 C98.8462898,27.7703476 99.6451605,26.5663946 100.094738,25.2185567 L98.0946951,25.2185567 C97.9187654,26.0907216 97.122452,27.0742268 95.7196442,28.2108247 C94.6046888,29.1735765 93.3181976,29.9165103 91.9278963,30.4005155 L93.7149716,19.164433 L91.9278963,19.164433 L88.9463509,38.0412371 L90.7426857,38.0412371 Z M34.0701747,23.4927835 L31.7784589,38.0412371 L35.1489015,38.0412371 L37.4637659,23.4927835 L42.3481299,23.4927835 L42.8527703,20.3845361 L29.8339728,20.3845361 L29.3247026,23.4927835 L34.0701747,23.4927835 Z M46.4037724,34.1118557 C46.0366033,34.5013126 45.5980628,34.8163199 45.112078,35.0396907 C44.5757855,35.2497043 44.0022929,35.3475864 43.4268567,35.3273196 C42.8063858,35.3672632 42.2522115,34.9408683 42.1305326,34.3298969 C42.0446513,33.9573748 42.0057664,33.575525 42.0147894,33.193299 C42.0227204,32.6297821 42.0784782,32.0679626 42.1814597,31.5139175 C42.4175758,29.9551546 42.7879541,28.9391753 43.2879648,28.4752577 C43.4802451,28.2683736 43.7075129,28.0971823 43.9592755,27.9695876 C44.1936112,27.865982 44.4390541,27.7897083 44.6907727,27.742268 C45.0591036,27.6778177 45.4326779,27.6483057 45.8065373,27.6541237 C46.3266188,27.6690811 46.840914,27.7677641 47.3297181,27.9463918 L46.4037724,34.1118557 Z M40.7786518,26.55 C40.3295635,27.0554503 39.9624336,27.6284023 39.6906655,28.2479381 C39.3078453,29.0931265 39.0385187,29.9854337 38.8897224,30.9015464 C38.706009,31.9086026 38.614577,32.9303822 38.6165684,33.9541237 C38.5875711,34.8498076 38.8020051,35.7365536 39.2369521,36.5195876 C39.5349568,37.0526292 39.9760104,37.4913685 40.5101275,37.7860825 C41.004634,38.0497131 41.5565076,38.1867678 42.1166434,38.1850515 C42.6733812,38.1878824 43.2278976,38.1145244 43.7648269,37.9670103 C44.650372,37.7941443 45.4597811,37.3480609 46.0796914,36.6912371 L46.6213696,38.0412371 L49.2186475,38.0412371 L50.9270175,26.4850515 C50.132976,25.8247136 49.1710949,25.3990159 48.1491802,25.2556701 C47.5843532,25.1443299 47.0797128,25.0747423 46.6306291,25.0283505 C46.1815454,24.9819588 45.8250563,24.9634021 45.5750509,24.9634021 C45.3250455,24.9634021 45.010224,24.9634021 44.6491051,25.0005155 C44.2879863,25.0376289 43.9037188,25.0747423 43.5101918,25.1396907 C43.0291209,25.2333978 42.5622397,25.3893424 42.1212732,25.6036082 C41.6207466,25.8358936 41.1659725,26.1564563 40.7786518,26.55 Z M57.9456864,27.5938144 L60.5198157,27.5938144 L59.3670132,34.8819588 C58.7899546,35.1210311 58.1820833,35.2772136 57.5614189,35.3458763 C57.2123097,35.3819229 56.8613906,35.3974134 56.5104705,35.392268 C56.1526715,35.4217977 55.7987487,35.3007814 55.5335977,35.0582474 C55.4312639,34.9416284 55.3398289,34.815843 55.2604437,34.6824742 C55.1649961,34.4902814 55.1113438,34.2799778 55.1030329,34.0654639 C55.076698,33.8529943 55.0612453,33.6393121 55.0567356,33.4252577 C55.0567356,33.2953608 55.1076626,32.7804124 55.2095167,31.8989691 C55.2775611,31.1549107 55.4329591,30.4214927 55.6724896,29.7139175 C55.8139486,29.2871374 56.0001792,28.876594 56.228057,28.4891753 C56.6086763,27.9144139 57.2575236,27.5761847 57.9456864,27.5938144 L57.9456864,27.5938144 Z M50.8205337,41.7804124 L50.4640446,44.021134 L56.1956489,44.6010309 C56.4826921,44.628866 56.7512164,44.6520619 57.0104812,44.6520619 C58.1424724,44.6968386 59.2534557,44.3367178 60.1448076,43.6360825 C61.1077912,42.8103093 61.7250884,41.5561856 61.9966992,39.8737113 L64.2374879,25.7381443 C63.2787432,25.5097072 62.3058958,25.345427 61.3253885,25.2463918 C60.0793743,25.0960902 58.8256813,25.0186395 57.5706784,25.014433 C56.1993706,24.9593229 54.8639094,25.4611426 53.8668953,26.4061856 C52.9131711,27.3340206 52.2788983,28.8278351 51.959447,30.9015464 C51.7940812,31.7888215 51.7119313,32.6896551 51.7140714,33.592268 C51.7021956,34.4452115 51.8595667,35.2920189 52.1770443,36.0835052 C52.402785,36.7063077 52.8449195,37.2267522 53.4224413,37.5494845 C54.1961205,37.9270076 55.0544659,38.096469 55.9132355,38.0412371 C57.0102845,38.0269076 58.0814877,37.7055337 59.0058943,37.1134021 L58.6447755,39.4329897 C58.5963942,39.8024523 58.4917822,40.162301 58.3345836,40.5 C57.9720331,41.3203761 57.1405833,41.8302394 56.2465759,41.7804124 L50.8205337,41.7804124 Z" id="Shape"></path>
                                    <path d="M27.6672597,10.5819588 L0.814832279,10.5819588 L0,17.1231959 L9.33816311,17.1231959 L5.99086915,38.0412371 L14.1253028,38.0412371 L17.5235237,17.1231959 L26.8107598,17.1231959 L27.6672597,10.5819588 Z M9.25945772,6.25824742 C9.20747253,7.87351731 10.4716392,9.2254053 12.0835923,9.27835052 C13.6955455,9.2254053 14.9597121,7.87351731 14.9077269,6.25824742 C14.951935,4.6475253 13.6906889,3.30290429 12.0835923,3.24742268 C10.4764957,3.30290429 9.2152497,4.6475253 9.25945772,6.25824742 L9.25945772,6.25824742 Z" id="Shape" opacity="0.7"></path>
                                    <path d="M37.0378309,10.5819588 L10.1854035,10.5819588 L9.37983067,17.1231959 L18.7133641,17.1231959 L15.3614404,38.0412371 L23.495874,38.0412371 L26.8987247,17.1231959 L36.1859608,17.1231959 L37.0378309,10.5819588 Z M24.9079413,6.12371134 C24.8479339,7.17340385 25.3727025,8.17014271 26.2712277,8.71312016 C27.1697529,9.25609761 28.2943989,9.25609761 29.1929241,8.71312016 C30.0914493,8.17014271 30.6162179,7.17340385 30.5562105,6.12371134 C30.6162179,5.07401883 30.0914493,4.07727997 29.1929241,3.53430252 C28.2943989,2.99132507 27.1697529,2.99132507 26.2712277,3.53430252 C25.3727025,4.07727997 24.8479339,5.07401883 24.9079413,6.12371134 L24.9079413,6.12371134 Z" id="Shape" opacity="0.7"></path>
                                    <path d="M27.6672597,10.5819588 L10.1854035,10.5819588 L9.37983067,17.1231959 L26.8107598,17.1231959 L27.6672597,10.5819588 Z M17.3985211,3.48402062 C17.354313,5.09474274 18.6155591,6.43936375 20.2226557,6.49484536 C21.8316397,6.43689407 23.0916022,5.08728951 23.0421605,3.47474227 C23.1162498,2.41719569 22.5952028,1.40661821 21.6915633,0.855241269 C20.7879238,0.303864333 19.6527578,0.303864333 18.7491183,0.855241269 C17.8454788,1.40661821 17.3244318,2.41719569 17.3985211,3.47474227 L17.3985211,3.48402062 Z" id="Shape"></path>
                                </g>
                            </g>
                        </g>
                    </g>
                </g>
            </g>
        </g>
    </g>
</svg>